<svg width="94" height="100" viewBox="0 0 94 100" fill="none" xmlns="http://www.w3.org/2000/svg">
<rect width="93.334" height="99.9999" rx="15" fill="#F8551A"/>
<path d="M42 11.09C44.5667 9.63669 48.764 9.63666 51.334 11.09L78.667 26.5802C81.2337 28.0336 83.334 31.6275 83.334 34.5675V65.4337C83.334 68.3704 81.2337 71.9644 78.667 73.421L51.334 88.9074C48.764 90.364 44.5667 90.364 42 88.9074L14.667 73.421C12.097 71.9644 10 68.3704 10 65.4337V34.5675C10 31.6275 12.097 28.0336 14.667 26.5802L42 11.09ZM74.8467 43.8742C59.6134 43.9442 48.2139 56.0405 48.2139 70.9572V71.5841H45.1631V70.9572C45.1631 56.0405 33.7464 43.9442 18.4863 43.8742C18.3897 44.8107 18.333 45.7606 18.333 46.7238C18.333 58.387 25.8865 68.3303 36.4697 72.1437C39.513 73.2603 43.2099 73.8741 46.6465 73.8742C50.0797 73.8742 53.8497 73.2603 56.8896 72.1437C67.4597 68.3303 75 58.3872 75 46.7238C75 45.7606 74.9467 44.8107 74.8467 43.8742ZM46.667 27.2072C41.6036 27.2072 37.5 31.3075 37.5 36.3742C37.5002 41.4374 41.6037 45.5402 46.667 45.5402C51.7336 45.5402 55.8338 41.4374 55.834 36.3742C55.834 31.3075 51.7337 27.2072 46.667 27.2072Z" fill="white"/>
</svg>
