<svg width="264" height="79" viewBox="0 0 264 79" fill="none" xmlns="http://www.w3.org/2000/svg">
<path d="M35.0728 5.89746C37.2594 4.65941 40.8344 4.65945 43.0239 5.89746L66.311 19.0947C68.4977 20.3329 70.2866 23.3946 70.2866 25.8994V52.1973C70.2866 54.6993 68.4977 57.7609 66.311 59.002L43.0239 72.1963C40.8344 73.4372 37.2594 73.4373 35.0728 72.1963L11.7856 59.002C9.5961 57.7609 7.81006 54.6993 7.81006 52.1973V25.8994C7.81007 23.3946 9.5961 20.3329 11.7856 19.0947L35.0728 5.89746ZM63.0601 33.8291C50.082 33.8888 40.3698 44.1947 40.3696 56.9033V57.4375H37.771V56.9033C37.7708 44.1947 28.0443 33.8887 15.0435 33.8291C14.9611 34.627 14.9126 35.4362 14.9126 36.2568C14.9126 46.1939 21.3481 54.6661 30.3647 57.915C32.9575 58.8664 36.1069 59.3887 39.0347 59.3887C41.9595 59.3887 45.1714 58.8663 47.7612 57.915C56.7665 54.6661 63.1909 46.1939 63.1909 36.2568C63.1909 35.4362 63.1452 34.627 63.0601 33.8291ZM39.0483 19.6279C34.7348 19.6281 31.239 23.121 31.2388 27.4375C31.2388 31.7513 34.7347 35.2479 39.0483 35.248C43.365 35.248 46.8579 31.7514 46.8579 27.4375C46.8577 23.1209 43.3648 19.6279 39.0483 19.6279Z" fill="#191918"/>
<path d="M89.5447 36.0488V10.7188H97.8067C100.481 10.7188 102.805 11.2628 104.777 12.3508C106.771 13.4162 108.313 14.9008 109.401 16.8048C110.489 18.6862 111.033 20.8735 111.033 23.3668C111.033 25.8375 110.489 28.0362 109.401 29.9628C108.313 31.8668 106.771 33.3628 104.777 34.4508C102.805 35.5162 100.481 36.0488 97.8067 36.0488H89.5447ZM94.1687 31.9688H97.9087C99.6313 31.9688 101.116 31.6175 102.363 30.9148C103.632 30.1895 104.618 29.1922 105.321 27.9228C106.023 26.6308 106.375 25.1122 106.375 23.3668C106.375 21.5988 106.023 20.0802 105.321 18.8108C104.618 17.5415 103.632 16.5555 102.363 15.8528C101.116 15.1502 99.6313 14.7988 97.9087 14.7988H94.1687V31.9688ZM123.111 36.4568C121.207 36.4568 119.541 36.0262 118.113 35.1648C116.685 34.3035 115.574 33.1362 114.781 31.6628C113.987 30.1895 113.591 28.5575 113.591 26.7668C113.591 24.9082 113.987 23.2648 114.781 21.8368C115.597 20.3862 116.696 19.2415 118.079 18.4028C119.484 17.5642 121.048 17.1448 122.771 17.1448C124.221 17.1448 125.491 17.3828 126.579 17.8588C127.689 18.3348 128.63 18.9922 129.401 19.8308C130.171 20.6695 130.761 21.6328 131.169 22.7208C131.577 23.7862 131.781 24.9422 131.781 26.1888C131.781 26.5062 131.758 26.8348 131.713 27.1748C131.69 27.5148 131.633 27.8095 131.543 28.0588H117.263V24.6588H129.027L126.919 26.2568C127.123 25.2142 127.066 24.2848 126.749 23.4688C126.454 22.6528 125.955 22.0068 125.253 21.5308C124.573 21.0548 123.745 20.8168 122.771 20.8168C121.841 20.8168 121.014 21.0548 120.289 21.5308C119.563 21.9842 119.008 22.6642 118.623 23.5708C118.26 24.4548 118.124 25.5315 118.215 26.8008C118.124 27.9342 118.271 28.9428 118.657 29.8268C119.065 30.6882 119.654 31.3568 120.425 31.8328C121.218 32.3088 122.125 32.5468 123.145 32.5468C124.165 32.5468 125.026 32.3315 125.729 31.9008C126.454 31.4702 127.021 30.8922 127.429 30.1668L131.033 31.9348C130.67 32.8188 130.103 33.6008 129.333 34.2808C128.562 34.9608 127.644 35.4935 126.579 35.8788C125.536 36.2642 124.38 36.4568 123.111 36.4568ZM142.195 36.4568C140.223 36.4568 138.5 35.9922 137.027 35.0628C135.576 34.1108 134.579 32.8302 134.035 31.2208L137.367 29.6228C137.843 30.6655 138.5 31.4815 139.339 32.0708C140.2 32.6602 141.152 32.9548 142.195 32.9548C143.011 32.9548 143.657 32.7735 144.133 32.4108C144.609 32.0482 144.847 31.5722 144.847 30.9828C144.847 30.6202 144.745 30.3255 144.541 30.0988C144.36 29.8495 144.099 29.6455 143.759 29.4868C143.442 29.3055 143.09 29.1582 142.705 29.0448L139.679 28.1948C138.115 27.7415 136.925 27.0502 136.109 26.1208C135.316 25.1915 134.919 24.0922 134.919 22.8228C134.919 21.6895 135.202 20.7035 135.769 19.8648C136.358 19.0035 137.163 18.3348 138.183 17.8588C139.226 17.3828 140.416 17.1448 141.753 17.1448C143.498 17.1448 145.04 17.5642 146.377 18.4028C147.714 19.2415 148.666 20.4202 149.233 21.9388L145.833 23.5368C145.516 22.6982 144.983 22.0295 144.235 21.5308C143.487 21.0322 142.648 20.7828 141.719 20.7828C140.971 20.7828 140.382 20.9528 139.951 21.2928C139.52 21.6328 139.305 22.0748 139.305 22.6188C139.305 22.9588 139.396 23.2535 139.577 23.5028C139.758 23.7522 140.008 23.9562 140.325 24.1148C140.665 24.2735 141.05 24.4208 141.481 24.5568L144.439 25.4408C145.958 25.8942 147.125 26.5742 147.941 27.4808C148.78 28.3875 149.199 29.4982 149.199 30.8128C149.199 31.9235 148.904 32.9095 148.315 33.7708C147.726 34.6095 146.91 35.2668 145.867 35.7428C144.824 36.2188 143.6 36.4568 142.195 36.4568ZM152.622 36.0488V17.5528H157.076V36.0488H152.622ZM152.622 15.4788V10.7188H157.076V15.4788H152.622ZM170.164 43.5288C168.782 43.5288 167.501 43.3022 166.322 42.8488C165.144 42.3955 164.124 41.7608 163.262 40.9448C162.424 40.1515 161.812 39.2108 161.426 38.1228L165.574 36.5588C165.846 37.4202 166.379 38.1115 167.172 38.6328C167.988 39.1768 168.986 39.4488 170.164 39.4488C171.071 39.4488 171.864 39.2788 172.544 38.9388C173.247 38.5988 173.791 38.1002 174.176 37.4428C174.562 36.8082 174.754 36.0375 174.754 35.1308V30.9148L175.604 31.9348C174.97 33.0455 174.12 33.8842 173.054 34.4508C171.989 35.0175 170.776 35.3008 169.416 35.3008C167.694 35.3008 166.152 34.9042 164.792 34.1108C163.432 33.3175 162.367 32.2295 161.596 30.8468C160.826 29.4642 160.44 27.9115 160.44 26.1888C160.44 24.4435 160.826 22.8908 161.596 21.5308C162.367 20.1708 163.421 19.1055 164.758 18.3348C166.096 17.5415 167.614 17.1448 169.314 17.1448C170.697 17.1448 171.91 17.4395 172.952 18.0288C174.018 18.5955 174.902 19.4228 175.604 20.5108L174.992 21.6328V17.5528H179.208V35.1308C179.208 36.7402 178.812 38.1795 178.018 39.4488C177.248 40.7182 176.182 41.7155 174.822 42.4408C173.485 43.1662 171.932 43.5288 170.164 43.5288ZM169.96 31.1868C170.912 31.1868 171.74 30.9828 172.442 30.5748C173.168 30.1442 173.734 29.5548 174.142 28.8068C174.55 28.0588 174.754 27.1975 174.754 26.2228C174.754 25.2708 174.539 24.4208 174.108 23.6728C173.7 22.9022 173.134 22.3015 172.408 21.8708C171.706 21.4402 170.89 21.2248 169.96 21.2248C169.031 21.2248 168.192 21.4402 167.444 21.8708C166.696 22.3015 166.107 22.9022 165.676 23.6728C165.268 24.4208 165.064 25.2708 165.064 26.2228C165.064 27.1748 165.268 28.0248 165.676 28.7728C166.107 29.5208 166.685 30.1102 167.41 30.5408C168.158 30.9715 169.008 31.1868 169.96 31.1868ZM183.368 36.0488V17.5528H187.55V21.1908L187.21 20.5448C187.641 19.4342 188.343 18.5955 189.318 18.0288C190.315 17.4395 191.471 17.1448 192.786 17.1448C194.146 17.1448 195.347 17.4395 196.39 18.0288C197.455 18.6182 198.283 19.4455 198.872 20.5108C199.461 21.5535 199.756 22.7662 199.756 24.1488V36.0488H195.302V25.2028C195.302 24.3868 195.143 23.6842 194.826 23.0948C194.509 22.5055 194.067 22.0522 193.5 21.7348C192.956 21.3948 192.31 21.2248 191.562 21.2248C190.837 21.2248 190.191 21.3948 189.624 21.7348C189.057 22.0522 188.615 22.5055 188.298 23.0948C187.981 23.6842 187.822 24.3868 187.822 25.2028V36.0488H183.368ZM101.547 70.4568C99.7333 70.4568 98.056 70.1282 96.5147 69.4708C94.9733 68.8135 93.6247 67.8955 92.4687 66.7168C91.3127 65.5382 90.406 64.1555 89.7487 62.5688C89.114 60.9822 88.7967 59.2482 88.7967 57.3668C88.7967 55.4855 89.1027 53.7515 89.7147 52.1648C90.3493 50.5555 91.2333 49.1728 92.3667 48.0168C93.5227 46.8382 94.8713 45.9315 96.4127 45.2968C97.954 44.6395 99.6313 44.3108 101.445 44.3108C103.258 44.3108 104.879 44.6168 106.307 45.2288C107.757 45.8408 108.981 46.6568 109.979 47.6768C110.976 48.6742 111.69 49.7735 112.121 50.9748L108.007 52.9468C107.531 51.6322 106.726 50.5668 105.593 49.7508C104.459 48.9348 103.077 48.5268 101.445 48.5268C99.858 48.5268 98.4527 48.9008 97.2287 49.6488C96.0273 50.3968 95.0867 51.4282 94.4067 52.7428C93.7493 54.0575 93.4207 55.5988 93.4207 57.3668C93.4207 59.1348 93.7607 60.6875 94.4407 62.0248C95.1433 63.3395 96.1067 64.3708 97.3307 65.1188C98.5547 65.8668 99.96 66.2408 101.547 66.2408C102.839 66.2408 104.029 65.9915 105.117 65.4928C106.205 64.9715 107.077 64.2462 107.735 63.3168C108.392 62.3648 108.721 61.2428 108.721 59.9508V58.0128L110.829 59.8488H101.445V55.9388H113.345V58.4888C113.345 60.4382 113.016 62.1608 112.359 63.6568C111.701 65.1528 110.806 66.4108 109.673 67.4308C108.562 68.4282 107.304 69.1875 105.899 69.7088C104.493 70.2075 103.043 70.4568 101.547 70.4568ZM123.226 70.4568C121.798 70.4568 120.551 70.1395 119.486 69.5048C118.443 68.8702 117.638 67.9862 117.072 66.8528C116.528 65.7195 116.256 64.3935 116.256 62.8748V51.5528H120.71V62.5008C120.71 63.2715 120.857 63.9515 121.152 64.5408C121.469 65.1075 121.911 65.5608 122.478 65.9008C123.067 66.2182 123.724 66.3768 124.45 66.3768C125.175 66.3768 125.821 66.2182 126.388 65.9008C126.954 65.5608 127.396 65.0962 127.714 64.5068C128.031 63.9175 128.19 63.2148 128.19 62.3988V51.5528H132.644V70.0488H128.428V66.4108L128.802 67.0568C128.371 68.1902 127.657 69.0402 126.66 69.6068C125.685 70.1735 124.54 70.4568 123.226 70.4568ZM136.784 70.0488V51.5528H141.238V70.0488H136.784ZM136.784 49.4788V44.7188H141.238V49.4788H136.784ZM153.952 70.4568C152.162 70.4568 150.564 70.0375 149.158 69.1988C147.753 68.3375 146.642 67.1702 145.826 65.6968C145.01 64.2235 144.602 62.5915 144.602 60.8008C144.602 58.9875 145.01 57.3555 145.826 55.9048C146.642 54.4542 147.753 53.2982 149.158 52.4368C150.586 51.5755 152.173 51.1448 153.918 51.1448C155.324 51.1448 156.57 51.4282 157.658 51.9948C158.769 52.5388 159.642 53.3095 160.276 54.3068L159.596 55.2248V44.3108H164.05V70.0488H159.834V66.4788L160.31 67.3628C159.676 68.3602 158.792 69.1308 157.658 69.6748C156.525 70.1962 155.29 70.4568 153.952 70.4568ZM154.428 66.3768C155.448 66.3768 156.344 66.1388 157.114 65.6628C157.885 65.1868 158.486 64.5295 158.916 63.6908C159.37 62.8522 159.596 61.8888 159.596 60.8008C159.596 59.7355 159.37 58.7835 158.916 57.9448C158.486 57.0835 157.885 56.4148 157.114 55.9388C156.344 55.4628 155.448 55.2248 154.428 55.2248C153.431 55.2248 152.536 55.4742 151.742 55.9728C150.949 56.4488 150.326 57.1062 149.872 57.9448C149.442 58.7608 149.226 59.7128 149.226 60.8008C149.226 61.8888 149.442 62.8522 149.872 63.6908C150.326 64.5295 150.949 65.1868 151.742 65.6628C152.536 66.1388 153.431 66.3768 154.428 66.3768ZM176.966 70.4568C175.062 70.4568 173.396 70.0262 171.968 69.1648C170.54 68.3035 169.429 67.1362 168.636 65.6628C167.843 64.1895 167.446 62.5575 167.446 60.7668C167.446 58.9082 167.843 57.2648 168.636 55.8368C169.452 54.3862 170.551 53.2415 171.934 52.4028C173.339 51.5642 174.903 51.1448 176.626 51.1448C178.077 51.1448 179.346 51.3828 180.434 51.8588C181.545 52.3348 182.485 52.9922 183.256 53.8308C184.027 54.6695 184.616 55.6328 185.024 56.7208C185.432 57.7862 185.636 58.9422 185.636 60.1888C185.636 60.5062 185.613 60.8348 185.568 61.1748C185.545 61.5148 185.489 61.8095 185.398 62.0588H171.118V58.6588H182.882L180.774 60.2568C180.978 59.2142 180.921 58.2848 180.604 57.4688C180.309 56.6528 179.811 56.0068 179.108 55.5308C178.428 55.0548 177.601 54.8168 176.626 54.8168C175.697 54.8168 174.869 55.0548 174.144 55.5308C173.419 55.9842 172.863 56.6642 172.478 57.5708C172.115 58.4548 171.979 59.5315 172.07 60.8008C171.979 61.9342 172.127 62.9428 172.512 63.8268C172.92 64.6882 173.509 65.3568 174.28 65.8328C175.073 66.3088 175.98 66.5468 177 66.5468C178.02 66.5468 178.881 66.3315 179.584 65.9008C180.309 65.4702 180.876 64.8922 181.284 64.1668L184.888 65.9348C184.525 66.8188 183.959 67.6008 183.188 68.2808C182.417 68.9608 181.499 69.4935 180.434 69.8788C179.391 70.2642 178.235 70.4568 176.966 70.4568ZM189.012 70.0488V44.3108H193.466V70.0488H189.012ZM197.579 70.0488V51.5528H202.033V70.0488H197.579ZM197.579 49.4788V44.7188H202.033V49.4788H197.579ZM206.145 70.0488V51.5528H210.327V55.1908L209.987 54.5448C210.418 53.4342 211.121 52.5955 212.095 52.0288C213.093 51.4395 214.249 51.1448 215.563 51.1448C216.923 51.1448 218.125 51.4395 219.167 52.0288C220.233 52.6182 221.06 53.4455 221.649 54.5108C222.239 55.5535 222.533 56.7662 222.533 58.1488V70.0488H218.079V59.2028C218.079 58.3868 217.921 57.6842 217.603 57.0948C217.286 56.5055 216.844 56.0522 216.277 55.7348C215.733 55.3948 215.087 55.2248 214.339 55.2248C213.614 55.2248 212.968 55.3948 212.401 55.7348C211.835 56.0522 211.393 56.5055 211.075 57.0948C210.758 57.6842 210.599 58.3868 210.599 59.2028V70.0488H206.145ZM235.072 70.4568C233.168 70.4568 231.502 70.0262 230.074 69.1648C228.646 68.3035 227.535 67.1362 226.742 65.6628C225.948 64.1895 225.552 62.5575 225.552 60.7668C225.552 58.9082 225.948 57.2648 226.742 55.8368C227.558 54.3862 228.657 53.2415 230.04 52.4028C231.445 51.5642 233.009 51.1448 234.732 51.1448C236.182 51.1448 237.452 51.3828 238.54 51.8588C239.65 52.3348 240.591 52.9922 241.362 53.8308C242.132 54.6695 242.722 55.6328 243.13 56.7208C243.538 57.7862 243.742 58.9422 243.742 60.1888C243.742 60.5062 243.719 60.8348 243.674 61.1748C243.651 61.5148 243.594 61.8095 243.504 62.0588H229.224V58.6588H240.988L238.88 60.2568C239.084 59.2142 239.027 58.2848 238.71 57.4688C238.415 56.6528 237.916 56.0068 237.214 55.5308C236.534 55.0548 235.706 54.8168 234.732 54.8168C233.802 54.8168 232.975 55.0548 232.25 55.5308C231.524 55.9842 230.969 56.6642 230.584 57.5708C230.221 58.4548 230.085 59.5315 230.176 60.8008C230.085 61.9342 230.232 62.9428 230.618 63.8268C231.026 64.6882 231.615 65.3568 232.386 65.8328C233.179 66.3088 234.086 66.5468 235.106 66.5468C236.126 66.5468 236.987 66.3315 237.69 65.9008C238.415 65.4702 238.982 64.8922 239.39 64.1668L242.994 65.9348C242.631 66.8188 242.064 67.6008 241.294 68.2808C240.523 68.9608 239.605 69.4935 238.54 69.8788C237.497 70.2642 236.341 70.4568 235.072 70.4568ZM254.156 70.4568C252.184 70.4568 250.461 69.9922 248.988 69.0628C247.537 68.1108 246.54 66.8302 245.996 65.2208L249.328 63.6228C249.804 64.6655 250.461 65.4815 251.3 66.0708C252.161 66.6602 253.113 66.9548 254.156 66.9548C254.972 66.9548 255.618 66.7735 256.094 66.4108C256.57 66.0482 256.808 65.5722 256.808 64.9828C256.808 64.6202 256.706 64.3255 256.502 64.0988C256.321 63.8495 256.06 63.6455 255.72 63.4868C255.403 63.3055 255.051 63.1582 254.666 63.0448L251.64 62.1948C250.076 61.7415 248.886 61.0502 248.07 60.1208C247.277 59.1915 246.88 58.0922 246.88 56.8228C246.88 55.6895 247.163 54.7035 247.73 53.8648C248.319 53.0035 249.124 52.3348 250.144 51.8588C251.187 51.3828 252.377 51.1448 253.714 51.1448C255.459 51.1448 257.001 51.5642 258.338 52.4028C259.675 53.2415 260.627 54.4202 261.194 55.9388L257.794 57.5368C257.477 56.6982 256.944 56.0295 256.196 55.5308C255.448 55.0322 254.609 54.7828 253.68 54.7828C252.932 54.7828 252.343 54.9528 251.912 55.2928C251.481 55.6328 251.266 56.0748 251.266 56.6188C251.266 56.9588 251.357 57.2535 251.538 57.5028C251.719 57.7522 251.969 57.9562 252.286 58.1148C252.626 58.2735 253.011 58.4208 253.442 58.5568L256.4 59.4408C257.919 59.8942 259.086 60.5742 259.902 61.4808C260.741 62.3875 261.16 63.4982 261.16 64.8128C261.16 65.9235 260.865 66.9095 260.276 67.7708C259.687 68.6095 258.871 69.2668 257.828 69.7428C256.785 70.2188 255.561 70.4568 254.156 70.4568Z" fill="#191918"/>
</svg>
